<svg viewBox="0 0 800 500" preserveAspectRatio="none" xmlns="http://www.w3.org/2000/svg" xmlns:xlink="http://www.w3.org/1999/xlink" width="100%" id="blobSvg">
  <g transform="translate(152.1246566772461, 37.408790588378906)">
    <path class="blob" d="M347,259.5Q307,269,370.5,326Q434,383,364.5,347.5Q295,312,292.5,342Q290,372,270,363Q250,354,230,363.5Q210,373,181.5,378.5Q153,384,108.5,384.5Q64,385,102,335.5Q140,286,110,268Q80,250,93.5,226.5Q107,203,142,200Q177,197,188.5,189Q200,181,190,108.5Q180,36,215,41Q250,46,266,98.5Q282,151,321,125Q360,99,394,109.5Q428,120,395,167Q362,214,374.5,232Q387,250,347,259.5Z" fill="#d1d8e0"></path>
  </g>
</svg>